<?xml version="1.0" encoding="UTF-8" standalone="no"?>
<!-- Created with Inkscape (http://www.inkscape.org/) -->

<svg
   xmlns:dc="http://purl.org/dc/elements/1.1/"
   xmlns:cc="http://creativecommons.org/ns#"
   xmlns:rdf="http://www.w3.org/1999/02/22-rdf-syntax-ns#"
   xmlns:svg="http://www.w3.org/2000/svg"
   xmlns="http://www.w3.org/2000/svg"
   xmlns:xlink="http://www.w3.org/1999/xlink"
   xmlns:sodipodi="http://sodipodi.sourceforge.net/DTD/sodipodi-0.dtd"
   xmlns:inkscape="http://www.inkscape.org/namespaces/inkscape"
   width="100"
   height="30"
   id="svg2"
   version="1.1"
   inkscape:version="0.47+devel r9426"
   sodipodi:docname="controls.svg">
  <defs
     id="defs4">
    <linearGradient
       id="linearGradient3828">
      <stop
         id="stop3830"
         offset="0"
         style="stop-color:#ffff00;stop-opacity:0" />
      <stop
         style="stop-color:#ffdc00;stop-opacity:1"
         offset="0.5"
         id="stop3832" />
      <stop
         id="stop3834"
         offset="1"
         style="stop-color:#ffff00;stop-opacity:0" />
    </linearGradient>
    <linearGradient
       id="linearGradient3820">
      <stop
         id="stop3822"
         offset="0"
         style="stop-color:#ffffff;stop-opacity:0;" />
      <stop
         style="stop-color:#ffdc00;stop-opacity:1"
         offset="0.5"
         id="stop3824" />
      <stop
         id="stop3826"
         offset="1"
         style="stop-color:#ffffff;stop-opacity:0;" />
    </linearGradient>
    <linearGradient
       id="linearGradient3812">
      <stop
         id="stop3814"
         offset="0"
         style="stop-color:#ffff00;stop-opacity:0" />
      <stop
         style="stop-color:#ffdc00;stop-opacity:1"
         offset="0.5"
         id="stop3816" />
      <stop
         id="stop3818"
         offset="1"
         style="stop-color:#ffff00;stop-opacity:0" />
    </linearGradient>
    <linearGradient
       id="linearGradient3804">
      <stop
         id="stop3806"
         offset="0"
         style="stop-color:#ffffff;stop-opacity:0;" />
      <stop
         style="stop-color:#64ffff;stop-opacity:1"
         offset="0.5"
         id="stop3808" />
      <stop
         id="stop3810"
         offset="1"
         style="stop-color:#ffffff;stop-opacity:0;" />
    </linearGradient>
    <linearGradient
       id="linearGradient3796">
      <stop
         id="stop3798"
         offset="0"
         style="stop-color:#ffffff;stop-opacity:0;" />
      <stop
         style="stop-color:#64ffff;stop-opacity:1"
         offset="0.5"
         id="stop3800" />
      <stop
         id="stop3802"
         offset="1"
         style="stop-color:#ffffff;stop-opacity:0;" />
    </linearGradient>
    <linearGradient
       id="linearGradient4009">
      <stop
         style="stop-color:#ffffff;stop-opacity:0;"
         offset="0"
         id="stop4011" />
      <stop
         id="stop4013"
         offset="0.66666186"
         style="stop-color:#ffffff;stop-opacity:0;" />
      <stop
         id="stop4015"
         offset="0.83332986"
         style="stop-color:#64ffff;stop-opacity:1" />
      <stop
         style="stop-color:#ffffff;stop-opacity:0;"
         offset="1"
         id="stop4017" />
    </linearGradient>
    <linearGradient
       id="linearGradient3029">
      <stop
         id="stop3031"
         offset="0"
         style="stop-color:#ffffff;stop-opacity:0;" />
      <stop
         style="stop-color:#ffff00;stop-opacity:0"
         offset="0.66666669"
         id="stop3033" />
      <stop
         style="stop-color:#ffdc00;stop-opacity:1"
         offset="0.83333427"
         id="stop3035" />
      <stop
         id="stop3037"
         offset="1"
         style="stop-color:#ffff00;stop-opacity:0" />
    </linearGradient>
    <linearGradient
       id="linearGradient3807">
      <stop
         style="stop-color:#ffffff;stop-opacity:0;"
         offset="0"
         id="stop3809" />
      <stop
         id="stop3817"
         offset="0.66666669"
         style="stop-color:#ffffff;stop-opacity:0;" />
      <stop
         id="stop3815"
         offset="0.84885013"
         style="stop-color:#ffffff;stop-opacity:1;" />
      <stop
         style="stop-color:#ffffff;stop-opacity:0;"
         offset="1"
         id="stop3811" />
    </linearGradient>
    <linearGradient
       id="linearGradient3745">
      <stop
         style="stop-color:#ffffff;stop-opacity:0;"
         offset="0"
         id="stop3747" />
      <stop
         id="stop3753"
         offset="0.5"
         style="stop-color:#ffffff;stop-opacity:1;" />
      <stop
         style="stop-color:#ffffff;stop-opacity:0;"
         offset="1"
         id="stop3749" />
    </linearGradient>
    <linearGradient
       inkscape:collect="always"
       xlink:href="#linearGradient3828"
       id="linearGradient3751"
       x1="11"
       y1="8"
       x2="8"
       y2="11"
       gradientUnits="userSpaceOnUse" />
    <linearGradient
       inkscape:collect="always"
       xlink:href="#linearGradient3745"
       id="linearGradient3783"
       gradientUnits="userSpaceOnUse"
       x1="11"
       y1="8"
       x2="8"
       y2="11"
       gradientTransform="matrix(1,0,0,-1,0,1042.3622)" />
    <linearGradient
       inkscape:collect="always"
       xlink:href="#linearGradient3745"
       id="linearGradient3795"
       gradientUnits="userSpaceOnUse"
       x1="11"
       y1="8"
       x2="8"
       y2="11"
       gradientTransform="matrix(1,0,0,-1,0,1042.3622)" />
    <linearGradient
       id="linearGradient3807-0">
      <stop
         style="stop-color:#ffffff;stop-opacity:0;"
         offset="0"
         id="stop3809-4" />
      <stop
         id="stop3817-8"
         offset="0.66666669"
         style="stop-color:#ffffff;stop-opacity:0;" />
      <stop
         id="stop3815-7"
         offset="0.84885013"
         style="stop-color:#ffffff;stop-opacity:1;" />
      <stop
         style="stop-color:#ffffff;stop-opacity:0;"
         offset="1"
         id="stop3811-1" />
    </linearGradient>
    <radialGradient
       r="7.5"
       fy="1035.8318"
       fx="-34.163235"
       cy="1035.8318"
       cx="-34.163235"
       gradientTransform="matrix(-1.2000001,-4.817251e-6,2.8090885e-7,-1.2000042,-31.996174,1249.0023)"
       gradientUnits="userSpaceOnUse"
       id="radialGradient3007"
       xlink:href="#linearGradient3807-0"
       inkscape:collect="always" />
    <linearGradient
       inkscape:collect="always"
       xlink:href="#linearGradient3745-5"
       id="linearGradient3751-8"
       x1="11"
       y1="8"
       x2="8"
       y2="11"
       gradientUnits="userSpaceOnUse" />
    <linearGradient
       id="linearGradient3745-5">
      <stop
         style="stop-color:#ffffff;stop-opacity:0;"
         offset="0"
         id="stop3747-8" />
      <stop
         id="stop3753-2"
         offset="0.5"
         style="stop-color:#ffffff;stop-opacity:1;" />
      <stop
         style="stop-color:#ffffff;stop-opacity:0;"
         offset="1"
         id="stop3749-6" />
    </linearGradient>
    <radialGradient
       inkscape:collect="always"
       xlink:href="#linearGradient3029"
       id="radialGradient3862"
       gradientUnits="userSpaceOnUse"
       gradientTransform="matrix(2.0000001,2.503105e-5,6.2297518e-8,2.3999866,28.63366,-1448.4025)"
       cx="-6.8168616"
       cy="1037.8245"
       fx="-6.8168616"
       fy="1037.8245"
       r="7.5" />
    <linearGradient
       inkscape:collect="always"
       xlink:href="#linearGradient3820"
       id="linearGradient3864"
       gradientUnits="userSpaceOnUse"
       gradientTransform="translate(10,1018.3622)"
       x1="17"
       y1="13"
       x2="13"
       y2="17" />
    <linearGradient
       inkscape:collect="always"
       xlink:href="#linearGradient3812"
       id="linearGradient3866"
       gradientUnits="userSpaceOnUse"
       gradientTransform="matrix(-1,0,0,1,20,1018.3622)"
       x1="17"
       y1="13"
       x2="13"
       y2="17" />
    <radialGradient
       inkscape:collect="always"
       xlink:href="#linearGradient4009"
       id="radialGradient3932"
       gradientUnits="userSpaceOnUse"
       gradientTransform="matrix(2.4883461e-5,-2.0000013,2.3999802,-3.6766156e-8,-2470.5865,1023.7286)"
       cx="-6.8168344"
       cy="1037.7529"
       fx="-6.8168344"
       fy="1037.7529"
       r="7.5" />
    <linearGradient
       inkscape:collect="always"
       xlink:href="#linearGradient3804"
       id="linearGradient3934"
       gradientUnits="userSpaceOnUse"
       gradientTransform="matrix(0,-1,1,0,-4,1042.3622)"
       x1="17"
       y1="13"
       x2="13"
       y2="17" />
    <linearGradient
       inkscape:collect="always"
       xlink:href="#linearGradient3796"
       id="linearGradient3936"
       gradientUnits="userSpaceOnUse"
       gradientTransform="matrix(0,1,1,0,-4,1032.3622)"
       x1="17"
       y1="13"
       x2="13"
       y2="17" />
    <linearGradient
       inkscape:collect="always"
       xlink:href="#linearGradient3812"
       id="linearGradient3838"
       gradientUnits="userSpaceOnUse"
       gradientTransform="translate(10,1018.3622)"
       x1="17"
       y1="13"
       x2="13"
       y2="17" />
  </defs>
  <sodipodi:namedview
     id="base"
     pagecolor="#5c8ab7"
     bordercolor="#666666"
     borderopacity="0.55686275"
     inkscape:pageopacity="1"
     inkscape:pageshadow="2"
     inkscape:zoom="12"
     inkscape:cx="43.640732"
     inkscape:cy="14.380531"
     inkscape:document-units="px"
     inkscape:current-layer="layer1"
     showgrid="true"
     inkscape:showpageshadow="false"
     inkscape:window-width="1024"
     inkscape:window-height="576"
     inkscape:window-x="-1"
     inkscape:window-y="-3"
     inkscape:window-maximized="1">
    <inkscape:grid
       type="xygrid"
       id="grid2955"
       empspacing="5"
       visible="true"
       enabled="true"
       snapvisiblegridlinesonly="true" />
  </sodipodi:namedview>
  <metadata
     id="metadata7">
    <rdf:RDF>
      <cc:Work
         rdf:about="">
        <dc:format>image/svg+xml</dc:format>
        <dc:type
           rdf:resource="http://purl.org/dc/dcmitype/StillImage" />
        <dc:title />
      </cc:Work>
    </rdf:RDF>
  </metadata>
  <g
     inkscape:label="Layer 1"
     inkscape:groupmode="layer"
     id="layer1"
     transform="translate(0,-1022.3622)">
    <path
       sodipodi:nodetypes="ccccccccccc"
       transform="translate(0,1022.3622)"
       inkscape:connector-curvature="0"
       id="path2963"
       d="m 1,1 0,9 2,-2 9,9 -2,2 9,0 0,-9 -2,2 -9,-9 2,-2 z"
       style="fill:#000000;stroke:#ffffff;stroke-width:2;stroke-linecap:round;stroke-linejoin:round;stroke-opacity:1;stroke-miterlimit:4;stroke-dasharray:none" />
    <path
       style="fill:#000000;stroke:none;stroke-width:1px;stroke-linecap:butt;stroke-linejoin:miter;stroke-opacity:1"
       d="m 1,1 0,9 2,-2 9,9 -2,2 9,0 0,-9 -2,2 -9,-9 2,-2 z"
       id="path2961"
       inkscape:connector-curvature="0"
       transform="translate(0,1022.3622)"
       sodipodi:nodetypes="ccccccccccc" />
    <path
       sodipodi:nodetypes="ccccccccccc"
       transform="translate(0,1022.3622)"
       inkscape:connector-curvature="0"
       id="path3733"
       d="m 2,2 0,6 1,-1 10,10 -1,1 6,0 0,-6 -1,1 L 7,3 8,2 z"
       style="fill:#ff0000;stroke:none" />
    <path
       style="fill:url(#linearGradient3751);stroke:none;fill-opacity:1;opacity:0.5"
       d="m 3,3 0,3 11,11 3,0 0,-3 L 6,3 z"
       id="path3735"
       inkscape:connector-curvature="0"
       transform="translate(0,1022.3622)"
       sodipodi:nodetypes="ccccccc" />
    <g
       id="g3767">
      <path
         sodipodi:nodetypes="ccccccccccc"
         transform="translate(0,1022.3622)"
         inkscape:connector-curvature="0"
         id="path3759"
         d="M 1,1 1,12 4,9 11,16 8,19 19,19 19,8 16,11 9,4 12,1 z"
         style="fill:#ffffff;stroke:#ffffff;stroke-width:2;stroke-linecap:round;stroke-linejoin:round;stroke-miterlimit:4;stroke-opacity:1;stroke-dasharray:none" />
      <path
         style="fill:#000000;stroke:none"
         d="M 1,1 1,12 4,9 11,16 8,19 19,19 19,8 16,11 9,4 12,1 z"
         id="path3761"
         inkscape:connector-curvature="0"
         transform="translate(0,1022.3622)"
         sodipodi:nodetypes="ccccccccccc" />
      <path
         sodipodi:nodetypes="ccccccccccc"
         transform="translate(0,1022.3622)"
         inkscape:connector-curvature="0"
         id="path3763"
         d="m 2,2 0,8 2,-2 8,8 -2,2 8,0 0,-8 -2,2 -8,-8 2,-2 z"
         style="fill:#ff0000;stroke:none" />
      <path
         style="opacity:0.6;fill:url(#linearGradient3751);fill-opacity:1;stroke:none"
         d="m 3,4 0,2 11,11 2,0 1,-0.916667 L 17,14 6,3 4,3 z"
         id="path3765"
         inkscape:connector-curvature="0"
         transform="translate(0,1022.3622)"
         sodipodi:nodetypes="ccccccccc" />
    </g>
    <g
       id="g3848"
       transform="translate(22,0)">
      <path
         style="color:#000000;fill:#ffffff;fill-opacity:1;fill-rule:nonzero;stroke:#ffffff;stroke-width:2;stroke-linecap:round;stroke-linejoin:round;stroke-miterlimit:4;stroke-opacity:1;stroke-dasharray:none;stroke-dashoffset:0;marker:none;visibility:visible;display:inline;overflow:visible;enable-background:accumulate"
         d="m 3,1029.3622 c 6,-8 18,-8 24,0 l 0,6 -6,0 c -1.5,-2.5 -3.75,-4 -6,-4 -2.25,0 -4.5,1.5 -6,4 l -6,0 z"
         id="path3760"
         inkscape:connector-curvature="0"
         sodipodi:nodetypes="ccccsccc" />
      <path
         style="fill:#ffffff;stroke:#ffffff;stroke-width:2;stroke-linecap:round;stroke-linejoin:round;stroke-miterlimit:4;stroke-dasharray:none"
         d="m 1,1026.3622 0,11 11,0 z"
         id="path2986"
         inkscape:connector-curvature="0"
         sodipodi:nodetypes="cccc" />
      <path
         style="fill:#ffffff;stroke:#ffffff;stroke-width:2;stroke-linecap:round;stroke-linejoin:round;stroke-miterlimit:4;stroke-dasharray:none"
         d="m 18,1037.3622 11,0 0,-11 z"
         id="path2988"
         inkscape:connector-curvature="0"
         sodipodi:nodetypes="cccc" />
      <path
         sodipodi:nodetypes="cccc"
         inkscape:connector-curvature="0"
         id="path2980"
         d="m 1,1026.3622 0,11 11,0 z"
         style="fill:#000000;stroke:none" />
      <path
         sodipodi:nodetypes="cccc"
         inkscape:connector-curvature="0"
         id="path2982"
         d="m 18,1037.3622 11,0 0,-11 z"
         style="fill:#000000;stroke:none" />
      <path
         sodipodi:nodetypes="ccccsccc"
         inkscape:connector-curvature="0"
         id="path2984"
         d="m 3,1029.3622 c 6,-8 18,-8 24,0 l 0,6 -6,0 c -1.5,-2.5 -3.75,-4 -6,-4 -2.25,0 -4.5,1.5 -6,4 l -6,0 z"
         style="fill:#000000;stroke:none" />
      <path
         style="fill:#ff0000;stroke:none"
         d="m 2,1028.8622 0,7.5 7.5,0 z"
         id="path3779"
         inkscape:connector-curvature="0"
         sodipodi:nodetypes="cccc" />
      <path
         style="fill:#ff0000;stroke:none"
         d="m 20.5,1036.3622 7.5,0 0,-7.5 z"
         id="path3781"
         inkscape:connector-curvature="0"
         sodipodi:nodetypes="cccc" />
      <path
         style="fill:#ff0000;stroke:none"
         d="m 3.5,1030.3622 c 6,-8 17,-8 23,0 l 0.5,5 -5,-0.5 c -2,-3.5 -5,-4.5 -7,-4.5 -2,0 -5,1 -7,4.5 l -5,0.5 z"
         id="path3783"
         inkscape:connector-curvature="0"
         sodipodi:nodetypes="ccccsccc" />
      <path
         sodipodi:nodetypes="ccccccc"
         inkscape:connector-curvature="0"
         id="path3785"
         d="m 4,1030.3622 c 6,-7 16,-7 22,0 l -1,3 -3,1 c -4,-6 -10,-6 -14,0 l -3,-1 z"
         style="opacity:0.59999999999999998;color:#000000;fill:url(#radialGradient3862);fill-opacity:1;fill-rule:nonzero;stroke:none;marker:none;visibility:visible;display:inline;overflow:visible;enable-background:accumulate" />
      <path
         style="opacity:0.6;fill:url(#linearGradient3866);fill-opacity:1;stroke:none"
         d="m 5,1033.3622 3,1 -4,1 -1,-1 1,-4 z"
         id="path3844"
         inkscape:connector-curvature="0"
         sodipodi:nodetypes="cccccc" />
      <path
         sodipodi:nodetypes="cccccc"
         inkscape:connector-curvature="0"
         id="path3836"
         d="m 25,1033.3622 -3,1 4,1 1,-1 -1,-4 z"
         style="opacity:0.6;fill:url(#linearGradient3838);fill-opacity:1;stroke:none" />
    </g>
    <g
       id="g3918"
       transform="translate(54,0)">
      <path
         sodipodi:nodetypes="ccccsccc"
         inkscape:connector-curvature="0"
         id="path3870"
         d="m 7,1049.3622 c -8,-6 -8,-18 0,-24 l 6,0 0,6 c -2.5,1.5 -4,3.75 -4,6 0,2.25 1.5,4.5 4,6 l 0,6 z"
         style="color:#000000;fill:#ffffff;fill-opacity:1;fill-rule:nonzero;stroke:#ffffff;stroke-width:2;stroke-linecap:round;stroke-linejoin:round;stroke-miterlimit:4;stroke-opacity:1;stroke-dasharray:none;stroke-dashoffset:0;marker:none;visibility:visible;display:inline;overflow:visible;enable-background:accumulate" />
      <path
         sodipodi:nodetypes="cccc"
         inkscape:connector-curvature="0"
         id="path3872"
         d="m 4,1051.3622 11,0 0,-11 z"
         style="fill:#ffffff;stroke:#ffffff;stroke-width:2;stroke-linecap:round;stroke-linejoin:round;stroke-miterlimit:4;stroke-dasharray:none" />
      <path
         sodipodi:nodetypes="cccc"
         inkscape:connector-curvature="0"
         id="path3874"
         d="m 15,1034.3622 0,-11 -11,0 z"
         style="fill:#ffffff;stroke:#ffffff;stroke-width:2;stroke-linecap:round;stroke-linejoin:round;stroke-miterlimit:4;stroke-dasharray:none" />
      <path
         style="fill:#000000;stroke:none"
         d="m 4,1051.3622 11,0 0,-11 z"
         id="path3876"
         inkscape:connector-curvature="0"
         sodipodi:nodetypes="cccc" />
      <path
         style="fill:#000000;stroke:none"
         d="m 15,1034.3622 0,-11 -11,0 z"
         id="path3878"
         inkscape:connector-curvature="0"
         sodipodi:nodetypes="cccc" />
      <path
         style="fill:#000000;stroke:none"
         d="m 7,1049.3622 c -8,-6 -8,-18 0,-24 l 6,0 0,6 c -2.5,1.5 -4,3.75 -4,6 0,2.25 1.5,4.5 4,6 l 0,6 z"
         id="path3880"
         inkscape:connector-curvature="0"
         sodipodi:nodetypes="ccccsccc" />
      <path
         sodipodi:nodetypes="cccc"
         inkscape:connector-curvature="0"
         id="path3882"
         d="m 6.5,1050.3622 7.5,0 0,-7.5 z"
         style="fill:#0000ff;stroke:none" />
      <path
         sodipodi:nodetypes="cccc"
         inkscape:connector-curvature="0"
         id="path3884"
         d="m 14,1031.8622 0,-7.5 -7.5,0 z"
         style="fill:#0000ff;stroke:none" />
      <path
         sodipodi:nodetypes="ccccsccc"
         inkscape:connector-curvature="0"
         id="path3886"
         d="m 8,1048.8622 c -8,-6 -8,-17 0,-23 l 5,-0.5 -0.5,5 c -3.5,2 -4.5,5 -4.5,7 0,2 1,5 4.5,7 l 0.5,5 z"
         style="fill:#0000ff;stroke:none;fill-opacity:1" />
      <path
         style="opacity:0.59999999999999998;color:#000000;fill:url(#radialGradient3932);fill-opacity:1;fill-rule:nonzero;stroke:none;marker:none;visibility:visible;display:inline;overflow:visible;enable-background:accumulate"
         d="m 8,1048.3622 c -7,-6 -7,-16 0,-22 l 3,1 1,3 c -6,4 -6,10 0,14 l -1,3 z"
         id="path3888"
         inkscape:connector-curvature="0"
         sodipodi:nodetypes="ccccccc" />
      <path
         style="opacity:0.6;fill:url(#linearGradient3934);fill-opacity:1;stroke:none"
         d="m 11,1027.3622 1,3 1,-4 -1,-1 -4,1 z"
         id="path3890"
         inkscape:connector-curvature="0"
         sodipodi:nodetypes="cccccc" />
      <path
         sodipodi:nodetypes="cccccc"
         inkscape:connector-curvature="0"
         id="path3892"
         d="m 11,1047.3622 1,-3 1,4 -1,1 -4,-1 z"
         style="opacity:0.6;fill:url(#linearGradient3936);fill-opacity:1;stroke:none" />
    </g>
  </g>
</svg>
