<?xml version="1.0" encoding="UTF-8" standalone="no"?>
<!-- Created with Inkscape (http://www.inkscape.org/) -->

<svg
   xmlns:dc="http://purl.org/dc/elements/1.1/"
   xmlns:cc="http://creativecommons.org/ns#"
   xmlns:rdf="http://www.w3.org/1999/02/22-rdf-syntax-ns#"
   xmlns:svg="http://www.w3.org/2000/svg"
   xmlns="http://www.w3.org/2000/svg"
   xmlns:xlink="http://www.w3.org/1999/xlink"
   xmlns:sodipodi="http://sodipodi.sourceforge.net/DTD/sodipodi-0.dtd"
   xmlns:inkscape="http://www.inkscape.org/namespaces/inkscape"
   width="100"
   height="30"
   id="svg2"
   version="1.1"
   inkscape:version="0.47+devel r9426"
   sodipodi:docname="controls.svg">
  <defs
     id="defs4">
    <linearGradient
       id="linearGradient3807">
      <stop
         style="stop-color:#ffffff;stop-opacity:0;"
         offset="0"
         id="stop3809" />
      <stop
         id="stop3817"
         offset="0.66666669"
         style="stop-color:#ffffff;stop-opacity:0;" />
      <stop
         id="stop3815"
         offset="0.84885013"
         style="stop-color:#ffffff;stop-opacity:1;" />
      <stop
         style="stop-color:#ffffff;stop-opacity:0;"
         offset="1"
         id="stop3811" />
    </linearGradient>
    <linearGradient
       id="linearGradient3745">
      <stop
         style="stop-color:#ffffff;stop-opacity:0;"
         offset="0"
         id="stop3747" />
      <stop
         id="stop3753"
         offset="0.5"
         style="stop-color:#ffffff;stop-opacity:1;" />
      <stop
         style="stop-color:#ffffff;stop-opacity:0;"
         offset="1"
         id="stop3749" />
    </linearGradient>
    <linearGradient
       inkscape:collect="always"
       xlink:href="#linearGradient3745"
       id="linearGradient3751"
       x1="11"
       y1="8"
       x2="8"
       y2="11"
       gradientUnits="userSpaceOnUse" />
    <linearGradient
       inkscape:collect="always"
       xlink:href="#linearGradient3745"
       id="linearGradient3783"
       gradientUnits="userSpaceOnUse"
       x1="11"
       y1="8"
       x2="8"
       y2="11"
       gradientTransform="matrix(1,0,0,-1,0,1042.3622)" />
    <linearGradient
       inkscape:collect="always"
       xlink:href="#linearGradient3745"
       id="linearGradient3795"
       gradientUnits="userSpaceOnUse"
       x1="11"
       y1="8"
       x2="8"
       y2="11"
       gradientTransform="matrix(1,0,0,-1,0,1042.3622)" />
    <radialGradient
       inkscape:collect="always"
       xlink:href="#linearGradient3807"
       id="radialGradient3813"
       cx="-34.163235"
       cy="1035.8318"
       fx="-34.163235"
       fy="1035.8318"
       r="7.5"
       gradientUnits="userSpaceOnUse"
       gradientTransform="matrix(-1.2000001,-4.817251e-6,2.8090885e-7,-1.2000042,-24.996174,2275.3645)" />
  </defs>
  <sodipodi:namedview
     id="base"
     pagecolor="#5c8ab7"
     bordercolor="#666666"
     borderopacity="0.55686275"
     inkscape:pageopacity="1"
     inkscape:pageshadow="2"
     inkscape:zoom="12"
     inkscape:cx="44.722197"
     inkscape:cy="17.168142"
     inkscape:document-units="px"
     inkscape:current-layer="g3785"
     showgrid="true"
     inkscape:showpageshadow="false"
     inkscape:window-width="1024"
     inkscape:window-height="576"
     inkscape:window-x="-1"
     inkscape:window-y="-3"
     inkscape:window-maximized="1">
    <inkscape:grid
       type="xygrid"
       id="grid2955"
       empspacing="5"
       visible="true"
       enabled="true"
       snapvisiblegridlinesonly="true" />
  </sodipodi:namedview>
  <metadata
     id="metadata7">
    <rdf:RDF>
      <cc:Work
         rdf:about="">
        <dc:format>image/svg+xml</dc:format>
        <dc:type
           rdf:resource="http://purl.org/dc/dcmitype/StillImage" />
        <dc:title />
      </cc:Work>
    </rdf:RDF>
  </metadata>
  <g
     inkscape:label="Layer 1"
     inkscape:groupmode="layer"
     id="layer1"
     transform="translate(0,-1022.3622)">
    <path
       sodipodi:nodetypes="ccccccccccc"
       transform="translate(0,1022.3622)"
       inkscape:connector-curvature="0"
       id="path2963"
       d="m 1,1 0,9 2,-2 9,9 -2,2 9,0 0,-9 -2,2 -9,-9 2,-2 z"
       style="fill:#000000;stroke:#ffffff;stroke-width:2;stroke-linecap:round;stroke-linejoin:round;stroke-opacity:1;stroke-miterlimit:4;stroke-dasharray:none" />
    <path
       style="fill:#000000;stroke:none;stroke-width:1px;stroke-linecap:butt;stroke-linejoin:miter;stroke-opacity:1"
       d="m 1,1 0,9 2,-2 9,9 -2,2 9,0 0,-9 -2,2 -9,-9 2,-2 z"
       id="path2961"
       inkscape:connector-curvature="0"
       transform="translate(0,1022.3622)"
       sodipodi:nodetypes="ccccccccccc" />
    <path
       sodipodi:nodetypes="ccccccccccc"
       transform="translate(0,1022.3622)"
       inkscape:connector-curvature="0"
       id="path3733"
       d="m 2,2 0,6 1,-1 10,10 -1,1 6,0 0,-6 -1,1 L 7,3 8,2 z"
       style="fill:#ff0000;stroke:none" />
    <path
       style="fill:url(#linearGradient3751);stroke:none;fill-opacity:1;opacity:0.5"
       d="m 3,3 0,3 11,11 3,0 0,-3 L 6,3 z"
       id="path3735"
       inkscape:connector-curvature="0"
       transform="translate(0,1022.3622)"
       sodipodi:nodetypes="ccccccc" />
    <g
       id="g3767">
      <path
         sodipodi:nodetypes="ccccccccccc"
         transform="translate(0,1022.3622)"
         inkscape:connector-curvature="0"
         id="path3759"
         d="M 1,1 1,12 4,9 11,16 8,19 19,19 19,8 16,11 9,4 12,1 z"
         style="fill:#ffffff;stroke:#ffffff;stroke-width:2;stroke-linecap:round;stroke-linejoin:round;stroke-miterlimit:4;stroke-opacity:1;stroke-dasharray:none" />
      <path
         style="fill:#000000;stroke:none"
         d="M 1,1 1,12 4,9 11,16 8,19 19,19 19,8 16,11 9,4 12,1 z"
         id="path3761"
         inkscape:connector-curvature="0"
         transform="translate(0,1022.3622)"
         sodipodi:nodetypes="ccccccccccc" />
      <path
         sodipodi:nodetypes="ccccccccccc"
         transform="translate(0,1022.3622)"
         inkscape:connector-curvature="0"
         id="path3763"
         d="m 2,2 0,8 2,-2 8,8 -2,2 8,0 0,-8 -2,2 -8,-8 2,-2 z"
         style="fill:#ff0000;stroke:none" />
      <path
         style="fill:url(#linearGradient3751);stroke:none;fill-opacity:1;opacity:0.5"
         d="m 3,3 0,3 11,11 3,0 0,-3 L 6,3 z"
         id="path3765"
         inkscape:connector-curvature="0"
         transform="translate(0,1022.3622)"
         sodipodi:nodetypes="ccccccc" />
    </g>
    <g
       id="g3785"
       transform="translate(24,0)">
      <path
         style="fill:#ffffff;stroke:#ffffff;stroke-width:2;stroke-linecap:round;stroke-linejoin:round;stroke-miterlimit:4;stroke-dasharray:none"
         d="m 9,1023.3622 -8,8 4,0 c 0,8 4,12 12,12 l 0,4 8,-8 -8,-7 0,4 c -4,0 -5,-1 -5,-5 l 4,0 z"
         id="path3801"
         inkscape:connector-curvature="0"
         sodipodi:nodetypes="ccccccccccc" />
      <path
         sodipodi:nodetypes="ccccccccccc"
         inkscape:connector-curvature="0"
         id="path3789"
         d="m 9,1023.3622 -8,8 4,0 c 0,8 4,12 12,12 l 0,4 8,-8 -8,-7 0,4 c -4,0 -5,-1 -5,-5 l 4,0 z"
         style="fill:#000000;stroke:none" />
      <path
         style="fill:#ff0000;stroke:none"
         d="m 9,1024.8622 -5.5,5.5 2.5,0 c 0,9 4,12 12,12 l 0,2.5 5.5,-5.5 -5.5,-4.5 0,2.5 c -6,0 -7,-1 -7,-7 l 2.5,0 z"
         id="path3803"
         inkscape:connector-curvature="0"
         sodipodi:nodetypes="ccccccccccc" />
      <path
         sodipodi:nodetypes="ccccccc"
         inkscape:connector-curvature="0"
         id="path3805"
         d="m 9,1026.3622 -2,3 c 0,10 3,12 12,12 l 3,-2 -3,-1 c -7,0 -9,-2 -9,-9 z"
         style="fill:url(#radialGradient3813);stroke:none;fill-opacity:1" />
    </g>
  </g>
</svg>
