<?xml version="1.0" encoding="UTF-8" standalone="no"?>
<!-- Created with Inkscape (http://www.inkscape.org/) -->

<svg
   xmlns:dc="http://purl.org/dc/elements/1.1/"
   xmlns:cc="http://creativecommons.org/ns#"
   xmlns:rdf="http://www.w3.org/1999/02/22-rdf-syntax-ns#"
   xmlns:svg="http://www.w3.org/2000/svg"
   xmlns="http://www.w3.org/2000/svg"
   xmlns:xlink="http://www.w3.org/1999/xlink"
   xmlns:sodipodi="http://sodipodi.sourceforge.net/DTD/sodipodi-0.dtd"
   xmlns:inkscape="http://www.inkscape.org/namespaces/inkscape"
   width="100"
   height="30"
   id="svg2"
   version="1.1"
   inkscape:version="0.47+devel r9426"
   sodipodi:docname="controls.svg">
  <defs
     id="defs4">
    <linearGradient
       id="linearGradient3828">
      <stop
         id="stop3830"
         offset="0"
         style="stop-color:#ffff00;stop-opacity:0" />
      <stop
         style="stop-color:#ffdc00;stop-opacity:1"
         offset="0.5"
         id="stop3832" />
      <stop
         id="stop3834"
         offset="1"
         style="stop-color:#ffff00;stop-opacity:0" />
    </linearGradient>
    <linearGradient
       id="linearGradient3820">
      <stop
         id="stop3822"
         offset="0"
         style="stop-color:#ffffff;stop-opacity:0;" />
      <stop
         style="stop-color:#ffdc00;stop-opacity:1"
         offset="0.5"
         id="stop3824" />
      <stop
         id="stop3826"
         offset="1"
         style="stop-color:#ffffff;stop-opacity:0;" />
    </linearGradient>
    <linearGradient
       id="linearGradient3812">
      <stop
         id="stop3814"
         offset="0"
         style="stop-color:#ffff00;stop-opacity:0" />
      <stop
         style="stop-color:#ffdc00;stop-opacity:1"
         offset="0.5"
         id="stop3816" />
      <stop
         id="stop3818"
         offset="1"
         style="stop-color:#ffff00;stop-opacity:0" />
    </linearGradient>
    <linearGradient
       id="linearGradient3804">
      <stop
         id="stop3806"
         offset="0"
         style="stop-color:#ffffff;stop-opacity:0;" />
      <stop
         style="stop-color:#64ffff;stop-opacity:1"
         offset="0.5"
         id="stop3808" />
      <stop
         id="stop3810"
         offset="1"
         style="stop-color:#ffffff;stop-opacity:0;" />
    </linearGradient>
    <linearGradient
       id="linearGradient3796">
      <stop
         id="stop3798"
         offset="0"
         style="stop-color:#ffffff;stop-opacity:0;" />
      <stop
         style="stop-color:#64ffff;stop-opacity:1"
         offset="0.5"
         id="stop3800" />
      <stop
         id="stop3802"
         offset="1"
         style="stop-color:#ffffff;stop-opacity:0;" />
    </linearGradient>
    <linearGradient
       id="linearGradient4009">
      <stop
         style="stop-color:#ffffff;stop-opacity:0;"
         offset="0"
         id="stop4011" />
      <stop
         id="stop4013"
         offset="0.66666186"
         style="stop-color:#ffffff;stop-opacity:0;" />
      <stop
         id="stop4015"
         offset="0.83332986"
         style="stop-color:#64ffff;stop-opacity:1" />
      <stop
         style="stop-color:#ffffff;stop-opacity:0;"
         offset="1"
         id="stop4017" />
    </linearGradient>
    <linearGradient
       id="linearGradient3029">
      <stop
         id="stop3031"
         offset="0"
         style="stop-color:#ffffff;stop-opacity:0;" />
      <stop
         style="stop-color:#ffff00;stop-opacity:0"
         offset="0.66666669"
         id="stop3033" />
      <stop
         style="stop-color:#ffdc00;stop-opacity:1"
         offset="0.83333427"
         id="stop3035" />
      <stop
         id="stop3037"
         offset="1"
         style="stop-color:#ffff00;stop-opacity:0" />
    </linearGradient>
    <linearGradient
       id="linearGradient3807">
      <stop
         style="stop-color:#ffffff;stop-opacity:0;"
         offset="0"
         id="stop3809" />
      <stop
         id="stop3817"
         offset="0.66666669"
         style="stop-color:#ffffff;stop-opacity:0;" />
      <stop
         id="stop3815"
         offset="0.84885013"
         style="stop-color:#ffffff;stop-opacity:1;" />
      <stop
         style="stop-color:#ffffff;stop-opacity:0;"
         offset="1"
         id="stop3811" />
    </linearGradient>
    <linearGradient
       id="linearGradient3745">
      <stop
         style="stop-color:#ffffff;stop-opacity:0;"
         offset="0"
         id="stop3747" />
      <stop
         id="stop3753"
         offset="0.5"
         style="stop-color:#ffffff;stop-opacity:1;" />
      <stop
         style="stop-color:#ffffff;stop-opacity:0;"
         offset="1"
         id="stop3749" />
    </linearGradient>
    <linearGradient
       inkscape:collect="always"
       xlink:href="#linearGradient3745"
       id="linearGradient3783"
       gradientUnits="userSpaceOnUse"
       x1="11"
       y1="8"
       x2="8"
       y2="11"
       gradientTransform="matrix(1,0,0,-1,0,1042.3622)" />
    <linearGradient
       inkscape:collect="always"
       xlink:href="#linearGradient3745"
       id="linearGradient3795"
       gradientUnits="userSpaceOnUse"
       x1="11"
       y1="8"
       x2="8"
       y2="11"
       gradientTransform="matrix(1,0,0,-1,0,1042.3622)" />
    <linearGradient
       id="linearGradient3807-0">
      <stop
         style="stop-color:#ffffff;stop-opacity:0;"
         offset="0"
         id="stop3809-4" />
      <stop
         id="stop3817-8"
         offset="0.66666669"
         style="stop-color:#ffffff;stop-opacity:0;" />
      <stop
         id="stop3815-7"
         offset="0.84885013"
         style="stop-color:#ffffff;stop-opacity:1;" />
      <stop
         style="stop-color:#ffffff;stop-opacity:0;"
         offset="1"
         id="stop3811-1" />
    </linearGradient>
    <radialGradient
       r="7.5"
       fy="1035.8318"
       fx="-34.163235"
       cy="1035.8318"
       cx="-34.163235"
       gradientTransform="matrix(-1.2000001,-4.817251e-6,2.8090885e-7,-1.2000042,-31.996174,1249.0023)"
       gradientUnits="userSpaceOnUse"
       id="radialGradient3007"
       xlink:href="#linearGradient3807-0"
       inkscape:collect="always" />
    <linearGradient
       inkscape:collect="always"
       xlink:href="#linearGradient3745-5"
       id="linearGradient3751-8"
       x1="11"
       y1="8"
       x2="8"
       y2="11"
       gradientUnits="userSpaceOnUse" />
    <linearGradient
       id="linearGradient3745-5">
      <stop
         style="stop-color:#ffffff;stop-opacity:0;"
         offset="0"
         id="stop3747-8" />
      <stop
         id="stop3753-2"
         offset="0.5"
         style="stop-color:#ffffff;stop-opacity:1;" />
      <stop
         style="stop-color:#ffffff;stop-opacity:0;"
         offset="1"
         id="stop3749-6" />
    </linearGradient>
    <linearGradient
       inkscape:collect="always"
       xlink:href="#linearGradient3820"
       id="linearGradient3864"
       gradientUnits="userSpaceOnUse"
       gradientTransform="translate(10,1018.3622)"
       x1="17"
       y1="13"
       x2="13"
       y2="17" />
    <radialGradient
       inkscape:collect="always"
       xlink:href="#linearGradient4009"
       id="radialGradient3932"
       gradientUnits="userSpaceOnUse"
       gradientTransform="matrix(2.4883461e-5,-2.0000013,2.3999802,-3.6766156e-8,-2470.5865,1023.7286)"
       cx="-6.8168344"
       cy="1037.7529"
       fx="-6.8168344"
       fy="1037.7529"
       r="7.5" />
    <linearGradient
       inkscape:collect="always"
       xlink:href="#linearGradient3804"
       id="linearGradient3934"
       gradientUnits="userSpaceOnUse"
       gradientTransform="matrix(0,-1,1,0,-4,1042.3622)"
       x1="17"
       y1="13"
       x2="13"
       y2="17" />
    <linearGradient
       inkscape:collect="always"
       xlink:href="#linearGradient3796"
       id="linearGradient3936"
       gradientUnits="userSpaceOnUse"
       gradientTransform="matrix(0,1,1,0,-4,1032.3622)"
       x1="17"
       y1="13"
       x2="13"
       y2="17" />
    <radialGradient
       inkscape:collect="always"
       xlink:href="#linearGradient3029"
       id="radialGradient3891"
       gradientUnits="userSpaceOnUse"
       gradientTransform="matrix(2.0000001,2.503105e-5,6.2297518e-8,2.3999866,28.63366,-1448.4025)"
       cx="-6.8168616"
       cy="1037.8245"
       fx="-6.8168616"
       fy="1037.8245"
       r="7.5" />
    <linearGradient
       inkscape:collect="always"
       xlink:href="#linearGradient3812"
       id="linearGradient3893"
       gradientUnits="userSpaceOnUse"
       gradientTransform="matrix(-1,0,0,1,20,1018.3622)"
       x1="17"
       y1="13"
       x2="13"
       y2="17" />
    <linearGradient
       inkscape:collect="always"
       xlink:href="#linearGradient3812"
       id="linearGradient3895"
       gradientUnits="userSpaceOnUse"
       gradientTransform="translate(10,1018.3622)"
       x1="17"
       y1="13"
       x2="13"
       y2="17" />
  </defs>
  <sodipodi:namedview
     id="base"
     pagecolor="#5c8ab7"
     bordercolor="#666666"
     borderopacity="0.55686275"
     inkscape:pageopacity="1"
     inkscape:pageshadow="2"
     inkscape:zoom="12"
     inkscape:cx="58.031884"
     inkscape:cy="17.569912"
     inkscape:document-units="px"
     inkscape:current-layer="layer1"
     showgrid="true"
     inkscape:showpageshadow="false"
     inkscape:window-width="1024"
     inkscape:window-height="576"
     inkscape:window-x="-1"
     inkscape:window-y="-3"
     inkscape:window-maximized="1">
    <inkscape:grid
       type="xygrid"
       id="grid2955"
       empspacing="5"
       visible="true"
       enabled="true"
       snapvisiblegridlinesonly="true" />
  </sodipodi:namedview>
  <metadata
     id="metadata7">
    <rdf:RDF>
      <cc:Work
         rdf:about="">
        <dc:format>image/svg+xml</dc:format>
        <dc:type
           rdf:resource="http://purl.org/dc/dcmitype/StillImage" />
        <dc:title />
      </cc:Work>
    </rdf:RDF>
  </metadata>
  <g
     inkscape:label="Layer 1"
     inkscape:groupmode="layer"
     id="layer1">
    <g
       id="img-resizer"
       transform="translate(12,12)">
      <path
         sodipodi:nodetypes="ccccccccccc"
         inkscape:connector-curvature="0"
         id="path3759"
         d="M -9,-9 -9,2 -6,-1 1,6 -2,9 9,9 9,-2 6,1 -1,-6 2,-9 z"
         style="fill:#ffffff;stroke:#ffffff;stroke-width:4;stroke-linecap:round;stroke-linejoin:round;stroke-miterlimit:4;stroke-opacity:1;stroke-dasharray:none" />
      <path
         style="fill:#000000;stroke:none"
         d="M -9,-9 -9,2 -6,-1 1,6 -2,9 9,9 9,-2 6,1 -1,-6 2,-9 z"
         id="path3761"
         inkscape:connector-curvature="0"
         sodipodi:nodetypes="ccccccccccc" />
      <path
         sodipodi:nodetypes="ccccccccccc"
         inkscape:connector-curvature="0"
         id="path3763"
         d="m -8,-8 0,7.5 2,-2 L 2.5,6 0.5,8 8,8 8,0.5 6,2.5 -2.5,-6 l 2,-2 z"
         style="fill:#ff0000;stroke:none" />
      <path
         style="fill:#ff6600;stroke:none"
         d="m 5,8 1,0 10,10 0,1 3,0 0,-3 -0.96555,0.03445 L 8,6 8,5 5,5 z"
         id="path3860"
         inkscape:connector-curvature="0"
         transform="translate(-12,-12)"
         sodipodi:nodetypes="ccccccccccc" />
      <path
         style="fill:#ffe646;stroke:none;fill-opacity:1;opacity:0.4"
         d="m 6,6 1,2 9,9 2,1 -1,-2 -9,-9 z"
         id="path3862"
         inkscape:connector-curvature="0"
         transform="translate(-12,-12)"
         sodipodi:nodetypes="ccccccc" />
    </g>
    <g
       id="img-rotate"
       transform="translate(42,2)">
      <path
         style="fill:#ffffff;stroke:#ffffff;stroke-width:4;stroke-miterlimit:4;stroke-dasharray:none"
         d="M -12,8.5 C -9,4 -4.5,2 0,2 4.5,2 9,4 12,8.5 L 12,14 7,14 C 5,10 2.25,9 0,9 c -2.25,0 -5,1 -7,5 l -5,0 z"
         id="path3925"
         inkscape:connector-curvature="0"
         sodipodi:nodetypes="cscccsccc" />
      <path
         style="fill:#ffffff;stroke:#ffffff;stroke-width:4;stroke-linecap:round;stroke-linejoin:round;stroke-miterlimit:4;stroke-dasharray:none"
         d="m -14,5 0,11 11,0 z"
         id="path2986"
         inkscape:connector-curvature="0"
         sodipodi:nodetypes="cccc" />
      <path
         style="fill:#ffffff;stroke:#ffffff;stroke-width:4;stroke-linecap:round;stroke-linejoin:round;stroke-miterlimit:4;stroke-dasharray:none"
         d="M 3,16 14,16 14,5 z"
         id="path2988"
         inkscape:connector-curvature="0"
         sodipodi:nodetypes="cccc" />
      <path
         sodipodi:nodetypes="cccc"
         inkscape:connector-curvature="0"
         id="path2980"
         d="m -14,5 0,11 11,0 z"
         style="fill:#000000;stroke:none" />
      <path
         sodipodi:nodetypes="cccc"
         inkscape:connector-curvature="0"
         id="path2982"
         d="M 3,16 14,16 14,5 z"
         style="fill:#000000;stroke:none" />
      <path
         sodipodi:nodetypes="cscccsccc"
         inkscape:connector-curvature="0"
         id="path2984"
         d="M -12,8.5 C -9,4 -4.5,2 0,2 4.5,2 9,4 12,8.5 L 12,14 7,14 C 5,10 2.25,9 0,9 c -2.25,0 -5,1 -7,5 l -5,0 z"
         style="fill:#000000;stroke:none" />
      <path
         style="fill:#ff0000;stroke:none"
         d="m -13,7.5 0,7.5 7.5,0 z"
         id="path3779"
         inkscape:connector-curvature="0"
         sodipodi:nodetypes="cccc" />
      <path
         style="fill:#ff0000;stroke:none"
         d="M 5.5,15 13,15 13,7.5 z"
         id="path3781"
         inkscape:connector-curvature="0"
         sodipodi:nodetypes="cccc" />
      <path
         style="fill:#ff0000;stroke:none"
         d="M -12,10 C -9,5 -4.5,3 0,3 4.5,3 9,5 12,10 l 0,4 -4,0 C 6,9 2,8 0,8 -2,8 -6,9 -8,14 l -4,0 z"
         id="path3783"
         inkscape:connector-curvature="0"
         sodipodi:nodetypes="cscccsccc" />
      <path
         style="fill:#ff6600;fill-opacity:1;stroke:none"
         d="m -12,14 3,0 0,-0.5 C -7,9 -3,7 0,7 3,7 7,9 9,13.5 l 0,0.5 3,0 0,-3 -0.5,0 C 9,6 4,4 0,4 -4,4 -9,6 -11.5,11 l -0.5,0 z"
         id="path3897"
         inkscape:connector-curvature="0"
         sodipodi:nodetypes="cccscccccsccc" />
      <path
         sodipodi:nodetypes="ccscccscc"
         inkscape:connector-curvature="0"
         id="path3899"
         d="m -11,13 1.5,-1.25 C -7.5,8 -2.875,6 0,6 2.875,6 7.5,8 9.5,11.75 L 11,13 10.5,11.1203 C 8.5,8.1203 5,5 0,5 -5,5 -8.5,8.1203 -10.5,11.1203 z"
         style="opacity:0.4;fill:#ffe646;fill-opacity:1;stroke:none" />
    </g>
    <g
       id="sticker-rotate"
       transform="translate(62,16)">
      <path
         sodipodi:nodetypes="cscccsccc"
         inkscape:connector-curvature="0"
         id="path3929"
         d="M 8.5,12 C 4,9 2,4.5 2,0 2,-4.5 4,-9 8.5,-12 l 5.5,0 0,5 c -4,2 -5,4.75 -5,7 0,2.25 1,5 5,7 l 0,5 z"
         style="fill:#ffffff;stroke:#ffffff;stroke-width:4;stroke-miterlimit:4;stroke-dasharray:none" />
      <path
         sodipodi:nodetypes="cccc"
         inkscape:connector-curvature="0"
         id="path3931"
         d="M 5,14 16,14 16,3 z"
         style="fill:#ffffff;stroke:#ffffff;stroke-width:4;stroke-linecap:round;stroke-linejoin:round;stroke-miterlimit:4;stroke-dasharray:none" />
      <path
         sodipodi:nodetypes="cccc"
         inkscape:connector-curvature="0"
         id="path3933"
         d="m 16,-3 0,-11 -11,0 z"
         style="fill:#ffffff;stroke:#ffffff;stroke-width:4;stroke-linecap:round;stroke-linejoin:round;stroke-miterlimit:4;stroke-dasharray:none" />
      <path
         style="fill:#000000;stroke:none"
         d="M 5,14 16,14 16,3 z"
         id="path3935"
         inkscape:connector-curvature="0"
         sodipodi:nodetypes="cccc" />
      <path
         style="fill:#000000;stroke:none"
         d="m 16,-3 0,-11 -11,0 z"
         id="path3937"
         inkscape:connector-curvature="0"
         sodipodi:nodetypes="cccc" />
      <path
         style="fill:#000000;stroke:none"
         d="M 8.5,12 C 4,9 2,4.5 2,0 2,-4.5 4,-9 8.5,-12 l 5.5,0 0,5 c -4,2 -5,4.75 -5,7 0,2.25 1,5 5,7 l 0,5 z"
         id="path3939"
         inkscape:connector-curvature="0"
         sodipodi:nodetypes="cscccsccc" />
      <path
         sodipodi:nodetypes="cccc"
         inkscape:connector-curvature="0"
         id="path3941"
         d="M 7.5,13 15,13 15,5.5 z"
         style="fill:#0000ff;stroke:none" />
      <path
         sodipodi:nodetypes="cccc"
         inkscape:connector-curvature="0"
         id="path3943"
         d="m 15,-5.5 0,-7.5 -7.5,0 z"
         style="fill:#0000ff;stroke:none" />
      <path
         sodipodi:nodetypes="cscccsccc"
         inkscape:connector-curvature="0"
         id="path3945"
         d="M 10,12 C 5,9 3,4.5 3,0 3,-4.5 5,-9 10,-12 l 4,0 0,4 c -5,2 -6,6 -6,8 0,2 1,6 6,8 l 0,4 z"
         style="fill:#0000ff;stroke:none" />
      <path
         sodipodi:nodetypes="cccscccccsccc"
         inkscape:connector-curvature="0"
         id="path3947"
         d="M 14,12 14,9 13.5,9 C 9,7 7,3 7,0 7,-3 9,-7 13.5,-9 l 0.5,0 0,-3 -3,0 0,0.5 C 6,-9 4,-4 4,0 4,4 6,9 11,11.5 l 0,0.5 z"
         style="opacity:0.5;fill:#00ffff;fill-opacity:1;stroke:none" />
      <path
         style="opacity:0.4;fill:#00ffff;fill-opacity:1;stroke:none"
         d="M 13,11 11.75,9.5 C 8,7.5 6,2.875 6,0 6,-2.875 8,-7.5 11.75,-9.5 L 13,-11 11.1203,-10.5 C 8.1203,-8.5 5,-5 5,0 5,5 8.1203,8.5 11.1203,10.5 z"
         id="path3949"
         inkscape:connector-curvature="0"
         sodipodi:nodetypes="ccscccscc" />
    </g>
  </g>
</svg>
